<svg xmlns="http://www.w3.org/2000/svg" xml:space="preserve" style="fill-rule:evenodd;clip-rule:evenodd;stroke-linejoin:round;stroke-miterlimit:2" viewBox="0 0 512 512"><path d="M0 0h512v512H0z" style="fill:#44009a"/><path d="M198.928 457.5c-58.256-16.735-106.137-53.757-128.545-91.108-20.741-34.572-27.311-73.356-23.904-110.58.94-10.272 2.609-20.436 5.121-30.446 2.534-10.009 5.84-19.862 9.834-29.518 16.953-40.985 50.07-82.305 99.43-112.961 31.141-19.34 71.453-34.106 114.726-37.088 36.081-2.487 72.595 3.431 102.409 15.218 32.392 12.807 57.166 32.412 72.318 54.159l1.688 2.423c.507.739.997 1.406 1.345 1.994l2.225 3.584c.907 1.46-.318 3.145-2.736 3.765-1.872.48-3.915.174-5.161-.663-34.433-23.138-80.549-46.685-135.838-45.123-106.063 2.996-161.782 94.139-173.79 145.567-9.949 42.607 1.806 92.375 25.434 132.453 4.729 8.03 10.497 15.801 17.27 23.048 6.793 7.228 14.609 13.935 23.384 19.716 8.743 5.802 18.321 10.757 28.754 14.534 35.652 12.894 80.708 10.832 115.022-4.989a147.03 147.03 0 0 0 70.944-69.492c4.669-9.61 7.909-19.447 9.979-29.298 5.619-26.734-.26-53.942-14.421-79.057-10.033-17.794-28.697-34.647-57.04-41.749-39.657-9.936-74.29 4.527-92.149 26.709-21.235 26.709-24.256 58.546-10.504 86.013 3.908 7.805 9.456 15.581 19.418 20.881 5.74 3.054 13.227 5.217 20.973 4.713 11.877-.773 22.145-7.263 28.872-13.005a62.525 62.525 0 0 0 5.244-5.073 61.228 61.228 0 0 0 4.292-5.285c2.559-3.555 4.493-7.126 5.898-10.562.73-1.719 1.264-3.405 1.719-5.047.475-1.647.78-3.233 1.003-4.787.852-6.633.617-12.474.358-17.313-.311-4.828-.662-8.609-.87-11.161l-.216-2.904-.058-.986c-.097-1.591 1.93-2.983 4.526-3.109 1.91-.094 3.597.527 4.394 1.493l.713.869 2.061 2.583c1.78 2.294 4.428 5.697 7.539 10.322 1.579 2.31 3.226 4.94 4.883 7.92.809 1.494 1.654 3.07 2.435 4.748.388.841.79 1.686 1.165 2.626l1.089 2.667a45.446 45.446 0 0 1 2.711 12.955 48.389 48.389 0 0 1-1.493 15.064 52.046 52.046 0 0 1-2.859 8.232 56.599 56.599 0 0 1-4.705 8.615c-14.649 22.261-49.027 39.197-88.826 37.609-29.255-1.168-55.166-12.122-72.169-26.414-18.953-15.931-29.697-36.286-33.967-56.002-7.491-34.589 3.448-73.949 38.882-103.126 25.714-21.173 66.37-36.517 108.513-36.777 32.787-.203 64.244 8.687 87.063 22.553 58.383 35.478 69.174 101.86 60.341 149.643-8.446 45.687-40.828 96.434-102.445 127.136C305.813 471.291 248.6 471.77 198.928 457.5Z" style="fill:#fee262"/></svg>